<svg width="50" height="50" viewBox="0 0 50 50" fill="none" xmlns="http://www.w3.org/2000/svg">
<circle cx="25" cy="25" r="24" fill="white" stroke="#C7C3C3" stroke-width="2"/>
<mask id="mask0_576_339" style="mask-type:alpha" maskUnits="userSpaceOnUse" x="11" y="9" width="27" height="30">
<path d="M29.42 24.5192C31.6246 23.0221 33.0857 20.4644 33.0857 17.5607C33.0857 12.9568 29.42 9.21045 24.9151 9.21045C20.4102 9.21045 16.7445 12.9568 16.7445 17.5607C16.7445 20.4644 18.2019 23.0221 20.4102 24.5192C15.4158 26.3998 11.8421 31.2971 11.8421 37.0445V38.1578H37.9881V37.0445C37.9881 31.2971 34.4144 26.3998 29.42 24.5192ZM18.9233 17.5607C18.9233 14.183 21.6101 11.4372 24.9151 11.4372C28.2202 11.4372 30.9069 14.183 30.9069 17.5607C30.9069 20.9383 28.2202 23.6841 24.9151 23.6841C21.6101 23.6841 18.9233 20.9383 18.9233 17.5607ZM14.0761 35.9311C14.6245 30.3116 19.2766 25.9109 24.9151 25.9109C30.5536 25.9109 35.2057 30.3116 35.7541 35.9311H14.0761Z" fill="#FBD675"/>
</mask>
<g mask="url(#mask0_576_339)">
<rect x="6.23947" y="4.54126" width="38.2852" height="39.219" fill="#FBD675"/>
</g>
</svg>
