<svg width="26" height="25" viewBox="0 0 26 25" fill="none" xmlns="http://www.w3.org/2000/svg">
<circle cx="13.1888" cy="12.5" r="12.5" fill="#B1B1B1"/>
<path d="M7.62739 9.70277H10.2812V18.2387H7.62739V9.70277ZM8.95436 5.45972C9.80254 5.45972 10.4918 6.14902 10.4918 6.99862C10.4918 7.84738 9.80254 8.53668 8.95436 8.53668C8.10418 8.53668 7.41687 7.84738 7.41687 6.99862C7.41687 6.14902 8.10418 5.45972 8.95436 5.45972Z" fill="white"/>
<path d="M11.9454 9.70331H14.4901V10.8705H14.5264C14.8806 10.1992 15.7463 9.49194 17.0365 9.49194C19.723 9.49194 20.2189 11.2593 20.2189 13.5576V18.2392H17.5671V14.0882C17.5671 13.098 17.5499 11.8248 16.1885 11.8248C14.8079 11.8248 14.5972 12.904 14.5972 14.0171V18.2392H11.9454V9.70331Z" fill="white"/>
</svg>
