<svg width="96" height="74" viewBox="0 0 96 74" fill="none" xmlns="http://www.w3.org/2000/svg">
<path d="M94.6104 2H1.88196V51.8395H94.6104V2Z" stroke="black" stroke-width="2.5" stroke-miterlimit="10"/>
<path d="M50.3983 28.4504L52.4669 28.5607C53.846 26.106 54.9492 23.5961 55.7767 21.0034L56.8799 21.4723C57.1557 21.693 57.1006 21.8309 56.742 21.9136C55.9422 24.1753 54.9217 26.3818 53.7081 28.5607L58.8106 28.7262C58.2038 27.7608 57.7074 27.0437 57.3488 26.6024L58.3693 25.9956C59.3898 27.292 60.3276 28.7814 61.2102 30.4914L60.0794 31.1533L59.3898 29.8294H51.1154C50.8948 30.1328 50.7569 30.1328 50.6741 29.8019L50.3983 28.4504Z" fill="black"/>
<path d="M42.4189 23.7678L37.4824 29.9207L38.0848 30.4039L43.0213 24.2511L42.4189 23.7678Z" fill="black"/>
<path d="M36.801 24.8102H28.6369C29.1058 23.4863 29.2161 22.4658 29.2161 22.383L27.837 22.2175C27.837 22.2451 27.4233 25.5549 25.2444 27.982L26.2649 28.8922C27.0372 28.0096 27.6164 27.0718 28.0577 26.1617H32.25C32.1673 27.4304 31.6708 30.354 28.7196 32.7812L29.6022 33.8293C32.9947 31.016 33.5739 27.6511 33.6291 26.1617H36.7734L36.801 24.8102Z" fill="black"/>
<path d="M34.8534 21.4195L34.193 22.0051L35.8766 23.9037L36.537 23.3181L34.8534 21.4195Z" fill="black"/>
<path d="M77.18 17.5289L76.6559 7.57202L73.0428 13.3917C73.2634 17.5289 73.4565 20.949 73.622 23.5968C73.7874 26.2446 73.8702 28.8097 73.8978 31.3196C72.436 31.9539 70.9742 32.4504 69.5399 32.7538C68.5746 32.9744 67.3058 33.2227 65.7061 33.4985L64.0512 10.1922L60.4381 16.2601L61.6517 31.5402C60.1071 32.3401 57.8454 32.9744 54.8942 33.4157C51.943 33.857 49.5986 34.0777 47.861 34.0501C47.5576 34.0501 47.2818 34.0225 47.006 34.0225L48.7436 31.3196C49.1297 30.7404 49.4883 29.9681 49.7917 29.0303C49.8744 28.7269 49.9296 28.4235 49.9296 28.1753C49.9296 27.5961 49.709 27.072 49.2401 26.6307C48.716 26.1343 47.7507 25.8584 46.3992 25.8309H45.9303C44.7719 25.8309 43.8341 25.9412 43.117 26.1343C42.8412 26.3549 42.0138 27.2651 40.6623 28.8924C39.4211 30.3542 38.8143 31.3747 38.8143 31.8988C38.8143 31.9539 38.8143 31.9815 38.8419 32.0367L39.8072 35.2913L38.4006 35.5395L32.2775 36.56C32.5809 35.7602 32.8567 35.043 33.0498 34.4087C33.1326 34.1329 33.1877 33.857 33.1877 33.5536C33.1877 33.3882 33.1877 33.3054 33.105 33.2778C33.0498 33.2778 32.9671 33.333 32.9119 33.4433C32.4706 34.4914 31.7811 35.3188 30.8157 35.8429C29.6021 36.5324 26.7061 37.1116 22.1276 37.6357L22.2655 37.3875L21.3829 24.3691C21.3553 22.2177 20.7485 20.8938 19.535 20.4249C19.2591 20.3146 18.9558 20.2594 18.6248 20.2594C17.6319 20.2594 16.5286 20.8386 15.315 21.9695C14.8737 22.3832 14.1842 23.2382 13.3016 24.5345C12.3914 25.8309 11.564 27.2099 10.7917 28.7269C10.0194 30.2439 9.46777 31.7057 9.13679 33.0848C9.02647 33.5536 8.97131 33.9674 8.97131 34.3535C8.97131 35.0982 9.19196 35.705 9.63326 36.1463C10.5986 37.0841 11.6467 37.5529 12.7775 37.5529C13.1913 37.5529 13.605 37.4978 14.0463 37.3599C15.6184 36.891 16.9423 36.0636 17.9628 34.85L18.542 43.4829L18.4317 44.2001C18.4869 44.2001 18.542 44.2 18.5972 44.1725V44.2001V44.1725C19.9763 44.0346 21.6587 43.7863 23.6446 43.4278C25.6304 43.0692 27.1474 42.6555 28.2782 42.2142L28.1128 43.1244C30.2641 42.7658 32.5258 42.2969 34.8702 41.7453C37.2146 41.1661 38.9246 40.6696 40.0003 40.2283C40.3865 40.118 40.8829 39.8974 41.4346 39.594C41.4621 39.6215 41.4897 39.6491 41.5173 39.6767C42.0689 40.0353 42.7033 40.2559 43.3928 40.3387C46.5923 40.6696 49.9848 40.4214 53.5427 39.6491C57.1283 38.8769 59.8865 37.0289 61.8447 34.1329L62.2309 39.1251L62.0654 40.118L61.9826 40.2835V40.3111C62.093 40.2835 62.2033 40.2559 62.3136 40.2283V40.3111L62.3688 40.2008C66.7542 39.0975 69.5123 38.2701 70.6156 37.6633C73.9254 35.8981 76.0491 33.1399 76.9593 29.3889C77.1524 28.6993 77.2903 27.8995 77.4282 26.9893C77.5385 26.0791 77.5661 25.0862 77.5109 24.0657L77.18 17.5289ZM17.2457 30.9886C16.7217 31.1265 16.1976 31.2092 15.7012 31.2092C15.2323 31.2092 14.7634 31.1541 14.2945 31.0162C13.3292 30.7403 12.6948 30.2439 12.3362 29.5543C12.1983 29.3061 12.1156 29.0855 12.1156 28.8648C12.1156 28.6166 12.1983 28.3959 12.3914 28.1753C12.7775 27.7064 13.274 27.2099 13.8808 26.7411C14.2669 26.4101 14.7082 26.2722 15.1771 26.2722C15.4253 26.2722 15.7012 26.3273 16.0046 26.4101C16.6941 26.6583 17.1354 27.2927 17.2457 28.3408C17.3285 28.9476 17.356 29.4992 17.356 29.9957C17.3285 30.3266 17.3009 30.6852 17.2457 30.9886Z" fill="black"/>
<path d="M85.5924 10.3032L81.9517 16.0953L83.3583 37.0847L86.9715 31.2926L85.5924 10.3032Z" fill="black"/>
<path d="M5.38544 60.6647V71.2007H3.8133V60.6647H1V59.0925H8.19873V60.6647H5.38544Z" fill="black" stroke="black" stroke-width="0.2" stroke-miterlimit="10"/>
<path d="M19.9769 69.5456C18.7357 70.7316 17.3015 71.3384 15.7018 71.3384C13.9917 71.3384 12.5299 70.7316 11.3439 69.5456C10.1304 68.332 9.55115 66.8978 9.55115 65.1877C9.55115 63.4777 10.1579 62.0159 11.3439 60.8299C12.5575 59.6163 13.9917 59.0095 15.7018 59.0095C17.3015 59.0095 18.8185 59.6715 20.2527 60.9678L19.0943 62.0435C18.0186 61.0781 16.8878 60.6093 15.7294 60.6093C14.4606 60.6093 13.385 61.0505 12.4748 61.9607C11.5646 62.8709 11.1233 63.9466 11.1233 65.2153C11.1233 66.4841 11.5646 67.5873 12.4748 68.4699C13.385 69.3801 14.4606 69.8214 15.7294 69.8214C16.805 69.8214 17.7152 69.5456 18.4323 68.9664V65.3257H20.0045V69.5456H19.9769Z" fill="black" stroke="black" stroke-width="0.2" stroke-miterlimit="10"/>
<path d="M30.6771 59.1199L35.0625 71.2005H33.4077L31.8631 66.9254H28.6637L27.1191 71.2005H25.4366L29.8221 59.1199H30.6771ZM31.2839 65.3533L30.2358 62.5124L29.2153 65.3533H31.2839Z" fill="black" stroke="black" stroke-width="0.2" stroke-miterlimit="10"/>
<path d="M42.9248 68.526L44.497 69.0776C44.1108 69.6017 43.835 69.9602 43.6695 70.1257C42.8145 70.9807 41.8216 71.3944 40.6356 71.3944C39.4496 71.3944 38.4291 70.9807 37.6016 70.1257C36.7466 69.2707 36.3329 68.2778 36.3329 67.0918C36.3329 65.9058 36.7466 64.8853 37.6016 64.0578C38.4567 63.2028 39.4496 62.7891 40.6356 62.7891C41.8216 62.7891 42.8421 63.2028 43.6695 64.0578C43.835 64.2233 44.1108 64.5819 44.497 65.1059L42.9248 65.6851C42.7318 65.4369 42.5938 65.2714 42.5111 65.2162C41.9871 64.6922 41.3527 64.4439 40.608 64.4439C39.8633 64.4439 39.2289 64.7198 38.7049 65.2438C38.1808 65.7679 37.905 66.4022 37.905 67.1469C37.905 67.8916 38.1808 68.526 38.7049 69.05C39.2289 69.5741 39.8633 69.8499 40.608 69.8499C41.3527 69.8499 41.9871 69.6017 42.5111 69.0776C42.5938 68.9397 42.7042 68.7742 42.9248 68.526Z" fill="black" stroke="black" stroke-width="0.2" stroke-miterlimit="10"/>
<path d="M53.0467 63.9751V63.4234H54.6188V71.2014H53.0467V70.236C52.302 71.0083 51.4194 71.3944 50.4265 71.3944C49.2405 71.3944 48.22 70.9807 47.3925 70.1257C46.5651 69.2983 46.1238 68.2778 46.1238 67.0918C46.1238 65.9058 46.5375 64.8853 47.3925 64.0578C48.22 63.2304 49.2405 62.7891 50.4265 62.7891C51.3918 62.8166 52.2744 63.2028 53.0467 63.9751ZM53.0467 67.671V66.5125C52.9639 66.0161 52.7157 65.5748 52.3296 65.1886C51.8055 64.6646 51.1712 64.4164 50.4265 64.4164C49.6818 64.4164 49.0474 64.6922 48.5233 65.1886C47.9993 65.7127 47.7235 66.3471 47.7235 67.0918C47.7235 67.8365 47.9993 68.4708 48.5233 68.9949C49.0474 69.5189 49.6818 69.7947 50.4265 69.7947C51.1712 69.7947 51.8055 69.5465 52.3296 69.0225C52.7157 68.6087 52.9364 68.1674 53.0467 67.671Z" fill="black" stroke="black" stroke-width="0.2" stroke-miterlimit="10"/>
<path d="M63.637 63.9468V59.0925H65.2091V71.1732H63.637V70.2078C62.8923 70.9801 62.0097 71.3662 60.9892 71.3662C59.8032 71.3662 58.7827 70.9525 57.9553 70.0975C57.1278 69.2425 56.6865 68.2495 56.6865 67.0635C56.6865 65.8775 57.1002 64.857 57.9553 64.0296C58.7827 63.1746 59.8032 62.7608 60.9892 62.7608C62.0097 62.7884 62.8647 63.1746 63.637 63.9468ZM63.637 67.6703V66.5119C63.5543 66.0154 63.306 65.5741 62.8923 65.188C62.3683 64.664 61.7339 64.3881 60.9892 64.3881C60.2445 64.3881 59.6101 64.664 59.0861 65.188C58.5621 65.712 58.2862 66.3464 58.2862 67.0911C58.2862 67.8358 58.5621 68.4702 59.0861 68.9942C59.6101 69.5183 60.2445 69.7665 60.9892 69.7665C61.7339 69.7665 62.3683 69.5183 62.8923 68.9942C63.306 68.6081 63.5267 68.1668 63.637 67.6703Z" fill="black" stroke="black" stroke-width="0.2" stroke-miterlimit="10"/>
<path d="M70.0629 69.4357C70.3112 69.6563 70.8076 69.7942 71.4972 69.7942C72.2419 69.7942 72.8762 69.546 73.4003 69.022C73.4554 68.9392 73.5933 68.8013 73.814 68.5531L75.3861 69.1047C75 69.6287 74.7242 69.9873 74.5587 70.1528C73.7037 71.0078 72.7107 71.4215 71.5247 71.4215C70.3387 71.4215 69.3182 71.0078 68.4908 70.1528C67.6358 69.2978 67.222 68.3048 67.222 67.1188C67.222 65.9328 67.6358 64.9123 68.4908 64.0849C69.3458 63.2299 70.3387 62.8162 71.5247 62.8162C72.5452 62.8162 73.4278 63.1196 74.2001 63.7263C74.338 63.8367 74.4484 63.947 74.5587 64.0573C74.6138 64.1125 74.7517 64.278 75 64.5262L74.2277 65.3261L70.0629 69.4357ZM72.6831 64.6089C72.5177 64.471 72.1039 64.4159 71.4972 64.4159C70.7525 64.4159 70.1181 64.6917 69.594 65.2157C69.07 65.7398 68.7942 66.3741 68.7942 67.1188C68.7942 67.7256 68.8493 68.1118 68.9872 68.3048L72.6831 64.6089Z" fill="black" stroke="black" stroke-width="0.2" stroke-miterlimit="10"/>
<path d="M77.1804 63.4232H78.8353V64.1404C79.1387 63.3681 79.7731 63.0095 80.6557 63.0095C81.5658 63.0095 82.0623 63.4508 82.1726 64.3058C82.4209 63.4508 83.138 63.0095 84.324 63.0095C85.4824 63.0095 86.0616 63.6715 86.0616 65.023V71.2012H84.4067V65.7401C84.4067 64.9678 84.0758 64.5817 83.4414 64.5817C83.1656 64.5817 82.9449 64.6644 82.7519 64.8575C82.5588 65.0505 82.4484 65.6573 82.4484 66.6779V71.2012H80.7936V65.7401C80.7936 64.9678 80.4626 64.5817 79.8006 64.5817C79.5248 64.5817 79.3042 64.6644 79.1111 64.8575C78.9456 65.023 78.8353 65.4367 78.8353 66.0986V71.2012H77.1804V63.4232Z" fill="black" stroke="black" stroke-width="0.2" stroke-miterlimit="10"/>
<path d="M90.3371 73.8215H88.6822L90.7508 69.4637L87.8547 63.4233H89.6199L91.6058 67.6709L93.5917 63.4233H95.3569L90.3371 73.8215Z" fill="black" stroke="black" stroke-width="0.2" stroke-miterlimit="10"/>
</svg>
