<svg width="26" height="25" viewBox="0 0 26 25" fill="none" xmlns="http://www.w3.org/2000/svg">
<path fill-rule="evenodd" clip-rule="evenodd" d="M12.7458 0C5.91586 0 0.378296 5.53757 0.378296 12.3675C0.378296 19.1975 5.91586 24.7351 12.7458 24.7351C19.5758 24.7351 25.1134 19.1975 25.1134 12.3675C25.1134 5.53757 19.5758 0 12.7458 0ZM18.4782 8.41096C18.2927 10.3661 17.4867 15.1121 17.0776 17.3022C16.9044 18.2298 16.5623 18.54 16.2325 18.5699C15.5141 18.6358 14.9689 18.0947 14.2732 17.6392C13.1849 16.926 12.5696 16.4818 11.5132 15.7851C10.2919 14.9802 11.0834 14.538 11.7791 13.8156C11.9615 13.6259 15.1256 10.7474 15.1874 10.4866C15.1946 10.4537 15.2029 10.332 15.1297 10.2681C15.0565 10.2043 14.9503 10.2259 14.8741 10.2434C14.7648 10.2682 13.0262 11.4173 9.65704 13.6909C9.16337 14.0299 8.71608 14.1948 8.31516 14.1866C7.87406 14.1773 7.02482 13.9372 6.39304 13.7311C5.61904 13.4796 5.00273 13.3456 5.05632 12.9189C5.08414 12.6963 5.39024 12.4685 5.97564 12.2356C9.58078 10.6649 11.9852 9.62916 13.188 9.12827C16.6231 7.69982 17.3363 7.45144 17.8021 7.4432C18.3854 7.43495 18.5256 7.91626 18.4782 8.41096Z" fill="#B1B1B1"/>
</svg>
